<?xml version="1.0" encoding="utf-8"?>
<!-- Generator: Adobe Illustrator 19.2.1, SVG Export Plug-In . SVG Version: 6.00 Build 0)  -->
<svg version="1.1" id="Layer_1" xmlns="http://www.w3.org/2000/svg" xmlns:xlink="http://www.w3.org/1999/xlink" x="0px" y="0px"
	 viewBox="0 0 244.9 371.1" style="enable-background:new 0 0 244.9 371.1;" xml:space="preserve">
<style type="text/css">
	.st0{opacity:0.9;fill:#FFFFFF;}
	.st1{fill:url(#SVGID_1_);}
	.st2{fill:url(#SVGID_2_);}
</style>
<g>
	<g>
		<path class="st0" d="M3.9,298.9C3.8,298.9,3.8,298.9,3.9,298.9C3.8,298.9,3.8,298.8,3.9,298.9l-0.1-16.2c0,0,0-0.1,0-0.1
			c0,0,0.1,0,0.1,0l5.5,0c4,0,5.6,1.5,5.6,5.4c0,3.9-1.6,5.4-5.6,5.4H8.2c-0.9,0-1.4,0.6-1.4,1.4v4c0,0,0,0.1,0,0.1c0,0,0,0-0.1,0
			H3.9z M8.2,285.6c-0.9,0-1.4,0.6-1.4,1.4v1.9c0,0.9,0.6,1.4,1.4,1.4h1.4c1.3,0,2.5-0.2,2.5-2.4c0-2.2-1.2-2.4-2.5-2.4H8.2z"/>
		<path class="st0" d="M34.4,298.9l-2.6-5.1l0,0c-0.2-0.3-0.5-0.4-0.8-0.4h-1c-0.8,0-1.5,0.6-1.5,1.5v4c0,0.1,0,0.1-0.1,0.1h-2.8
			c-0.1,0-0.1,0-0.1-0.1v-16.1c0-0.1,0-0.1,0.1-0.1h5.5c4,0,5.6,1.5,5.6,5.4c0,2.2-0.5,3.6-1.6,4.4c-0.4,0.3-0.5,0.7-0.3,1.1l0,0.1
			l2.7,5c0.1,0.1,0.1,0.2,0,0.3c0,0.1-0.1,0.1-0.3,0.1H34.4z M30,285.6c-0.8,0-1.5,0.6-1.5,1.5v1.9c0,0.8,0.6,1.5,1.5,1.5h1.3
			c1.3,0,2.5-0.2,2.5-2.4c0-2.2-1.2-2.4-2.5-2.4H30z"/>
		<path class="st0" d="M53.4,299.3c-3.7,0-5.6-1.8-5.6-5.4v-6.3c0-3.6,1.9-5.4,5.6-5.4c3.7,0,5.6,1.8,5.6,5.4v6.3
			C59.1,297.5,57.2,299.3,53.4,299.3z M53.4,285.1c-2.7,0-2.7,2.2-2.7,3.8v3.6c0,1.6,0,3.8,2.7,3.8c2.7,0,2.7-2.2,2.7-3.8v-3.6
			C56.1,287.3,56.1,285.1,53.4,285.1z"/>
		<path class="st0" d="M70.3,298.9C70.3,298.9,70.3,298.9,70.3,298.9C70.2,298.9,70.2,298.8,70.3,298.9l-0.1-16.2c0,0,0-0.1,0-0.1
			c0,0,0.1,0,0.1,0l5.6,0c4.2,0,5.6,1.4,5.6,5.4v5.5c0,4-1.5,5.4-5.6,5.4H70.3z M74.7,285.6c-0.9,0-1.4,0.6-1.4,1.4v7.5
			c0,0.9,0.6,1.4,1.4,1.4H76c1.2,0,2.5-0.2,2.5-2.4V288c0-2.2-1.2-2.4-2.5-2.4H74.7z"/>
		<path class="st0" d="M98.3,299.3c-3.7,0-5.6-1.8-5.6-5.4v-11.2c0,0,0-0.1,0-0.1c0,0,2.9,0,2.9,0c0,0,0.1,0,0.1,0c0,0,0,0,0,0.1
			v9.9c0,1.6,0,3.8,2.7,3.8c2.7,0,2.7-2.2,2.7-3.8v-9.9c0,0,0-0.1,0-0.1c0,0,2.9,0,2.9,0c0,0,0.1,0,0.1,0c0,0,0,0,0,0.1v11.2
			C103.9,297.5,102,299.3,98.3,299.3z"/>
		<path class="st0" d="M120.6,299.3c-3.7,0-5.6-1.8-5.6-5.4v-6.3c0-3.6,1.9-5.4,5.6-5.4c3.6,0,5.5,1.6,5.6,4.9c0,0-2.8,0.6-2.8,0.6
			c-0.1,0-0.2-0.2-0.2-0.2c-0.2-1.6-1-2.3-2.6-2.3c-2.7,0-2.7,2.2-2.7,3.8v3.6c0,1.6,0,3.8,2.7,3.8c2,0,2.4-1.3,2.6-2.4l0,0
			c0,0,0-0.2,0.1-0.2l2.9,0.6C126.1,296.7,125,299.3,120.6,299.3z"/>
		<path class="st0" d="M141,298.9C140.9,298.9,140.9,298.9,141,298.9C140.9,298.9,140.9,298.8,141,298.9l-0.1-11.9
			c0-0.9-0.5-1.4-1.4-1.4h-3.5c0,0-0.1,0-0.1,0c0,0,0,0,0-0.1v-2.8c0,0,0-0.1,0-0.1c0,0,13,0,13,0c0,0,0.1,0,0.1,0c0,0,0,0,0,0.1
			v2.8c0,0,0,0.1,0,0.1c0,0-3.6,0-3.6,0c-0.9,0-1.4,0.6-1.4,1.4v11.8c0,0,0,0.1,0,0.1c0,0,0,0-0.1,0H141z"/>
		<path class="st0" d="M159.4,298.9C159.4,298.9,159.4,298.9,159.4,298.9C159.3,298.9,159.3,298.8,159.4,298.9l-0.1-16.2
			c0,0,0-0.1,0-0.1c0,0,2.8,0,2.8,0c0,0,0.1,0,0.1,0c0,0,0,0,0,0.1v16.1c0,0,0,0.1,0,0.1c0,0,0,0-0.1,0H159.4z"/>
		<path class="st0" d="M176.7,298.9c-0.1,0-0.1,0-0.2-0.1c0,0-3.7-16.2-3.7-16.2h3c0.1,0,0.1,0,0.2,0.1l2.2,9.7
			c0.1,0.4,0.4,0.7,0.8,0.7c0.4,0,0.7-0.3,0.8-0.7l2.2-9.7c0-0.1,0-0.1,0.2-0.1h3l-3.7,16.2c0,0.1,0,0.1-0.2,0.1H176.7z"/>
		<path class="st0" d="M196,298.9C195.9,298.9,195.9,298.9,196,298.9C195.9,298.9,195.9,298.8,196,298.9l-0.1-16.2c0,0,0-0.1,0-0.1
			c0,0,2.8,0,2.8,0c0,0,0.1,0,0.1,0c0,0,0,0,0,0.1v16.1c0,0,0,0.1,0,0.1c0,0,0,0-0.1,0H196z"/>
		<path class="st0" d="M214.4,298.9C214.3,298.9,214.3,298.9,214.4,298.9C214.3,298.9,214.3,298.8,214.4,298.9l-0.1-11.9
			c0-0.9-0.5-1.4-1.4-1.4h-3.5c0,0-0.1,0-0.1,0c0,0,0,0,0-0.1v-2.8c0,0,0-0.1,0-0.1c0,0,13,0,13,0c0,0,0.1,0,0.1,0c0,0,0,0,0,0.1
			v2.8c0,0,0,0.1,0,0.1c0,0-3.6,0-3.6,0c-0.9,0-1.4,0.6-1.4,1.4v11.8c0,0,0,0.1,0,0.1c0,0,0,0-0.1,0H214.4z"/>
		<path class="st0" d="M236.6,298.9C236.6,298.9,236.6,298.9,236.6,298.9C236.6,298.9,236.5,298.8,236.6,298.9l-0.1-5.7
			c0-0.1,0-0.4-0.1-0.6l-4.5-10h3.6c0.2,0,0.2,0,0.2,0.1l1.9,4.7c0.2,0.4,0.5,0.6,0.8,0.6s0.6-0.2,0.8-0.6l1.9-4.7
			c0-0.1,0.1-0.2,0.2-0.2h3.5l-4.5,10c-0.1,0.2-0.1,0.4-0.1,0.6v5.6c0,0,0,0.1,0,0.1c0,0,0,0-0.1,0H236.6z"/>
		<linearGradient id="SVGID_1_" gradientUnits="userSpaceOnUse" x1="95.3838" y1="240.5381" x2="177.9698" y2="543.4132">
			<stop  offset="0" style="stop-color:#E95644"/>
			<stop  offset="1" style="stop-color:#02D8D0"/>
		</linearGradient>
		<path class="st1" d="M21.9,326v4.3c0,1-0.8,1.8-1.8,1.8H15v37.2c0,1-0.8,1.8-1.8,1.8H8.8c-1,0-1.8-0.8-1.8-1.8v-37.2H1.8
			c-1,0-1.8-0.8-1.8-1.8V326c0-0.9,0.8-1.8,1.8-1.8h18.3C21.1,324.1,21.9,325.1,21.9,326z M18.8,327.7c0-0.2-0.2-0.5-0.5-0.5H3.5
			c-0.2,0-0.5,0.2-0.5,0.5v1c0,0.2,0.2,0.5,0.5,0.5H10v38.5c0,0.2,0.2,0.5,0.5,0.5h0.9c0.3,0,0.5-0.2,0.5-0.5v-38.5h6.5
			c0.2,0,0.5-0.2,0.5-0.5V327.7z M59.1,338.4c0,3.8-1.5,7.1-4,9.5c2.5,2.4,4,5.8,4,9.6v11.8c0,1-0.8,1.8-1.8,1.8h-4.3
			c-1,0-1.8-0.8-1.8-1.8v-11.8c0-3.3-2.6-5.9-5.8-5.9h-4.4v17.7c0,1-0.9,1.8-1.8,1.8h-4.3c-1,0-1.8-0.8-1.8-1.8v-41.5
			c0-1.9,1.6-3.7,3.7-3.7H46c7.3,0,13.1,5.9,13.1,13.2V338.4z M56.1,337.4c0-5.6-4.6-10.2-10.2-10.2h-9.5c-0.3,0-0.7,0.2-0.7,0.6
			v39.9c0,0.2,0.2,0.5,0.6,0.5h0.9c0.2,0,0.5-0.2,0.5-0.5v-19.1h7.5c4.9,0,8.9,4,8.9,8.9v10.2c0,0.2,0.2,0.5,0.5,0.5h0.9
			c0.3,0,0.6-0.2,0.6-0.5v-10.2c0-4.5-2.9-8.1-6.7-9.6c3.9-1.4,6.7-5.1,6.7-9.5V337.4z M54.2,337.4v1.1c0,4.9-3.3,8.2-8.2,8.2h-8.2
			v-17.5H46C50.9,329.2,54.2,332.5,54.2,337.4z M51.1,337.4c0-3.3-1.9-5.2-5.1-5.2h-5.1v11.4H46c3.2,0,5.1-1.9,5.1-5.1V337.4z
			 M98.1,337.4v31.9c0,1-0.8,1.8-1.8,1.8h-3.7c-1,0-1.8-0.8-1.8-1.8v-17.7H79.1v17.7c0,1-0.8,1.8-1.8,1.8h-3.7
			c-0.9,0-1.8-0.8-1.8-1.8v-31.9c0-7.3,5.9-13.2,13.2-13.2C92.2,324.1,98.1,330.1,98.1,337.4z M95,337.4c0-5.6-4.4-10.2-10-10.2
			c-5.6,0-10.2,4.6-10.2,10.2v30.3c0,0.2,0.2,0.5,0.5,0.5h0.9c0.3,0,0.6-0.2,0.6-0.5v-19.1h16.4v19.1c0,0.2,0.2,0.5,0.5,0.5h0.9
			c0.2,0,0.5-0.2,0.5-0.5V337.4z M93.2,337.4v9.3H76.8v-9.3c0-4.9,3.3-8.2,8.2-8.2C89.9,329.2,93.2,332.5,93.2,337.4z M90.1,337.4
			c0-3.3-1.9-5.2-5.1-5.2c-3.3,0-5.2,1.9-5.2,5.2v6.2h10.4V337.4z M129,341.1v-3.9c0-3.2-1.9-5.1-5.1-5.1c-3.2,0-5.1,1.9-5.1,5.1
			V358c0,3.2,1.9,5.1,5.1,5.1c3.2,0,5.1-1.9,5.1-5.1v-4.2c0-1,0.8-1.8,1.8-1.8h4.3c1,0,1.8,0.8,1.8,1.8v4.2
			c0,7.2-5.9,13.1-13.1,13.1c-7.3,0-13.1-5.9-13.1-13.1v-20.7c0-7.2,5.8-13.1,13.1-13.1c7.2,0,13.1,5.9,13.1,13.1v3.9
			c0,1-0.8,1.8-1.8,1.8h-4.3C129.8,343,129,342.2,129,341.1z M132.1,337.3v2.2c0,0.2,0.1,0.5,0.5,0.5h0.9c0.2,0,0.5-0.2,0.5-0.5
			v-2.2c0-5.6-4.4-10.2-10-10.2c-5.6,0-10.2,4.6-10.2,10.2V358c0,5.6,4.6,10,10.2,10c5.6,0,10-4.4,10-10v-2.5c0-0.3-0.2-0.6-0.5-0.6
			h-0.9c-0.3,0-0.5,0.2-0.5,0.6v2.5c0,4.9-3.3,8.2-8.2,8.2c-4.9,0-8.2-3.3-8.2-8.2v-20.7c0-4.9,3.3-8.2,8.2-8.2
			C128.8,329.1,132.1,332.4,132.1,337.3z M175.5,337.7c0,3.8-1.5,7.1-4,9.5c2.5,2.4,3.4,6.5,3.4,10.3v11.8c0,1-0.9,1.8-1.8,1.8h-4.3
			c-1,0-1.8-0.8-1.8-1.8v-11.8c0-3.3-2.6-5.9-5.9-5.9h-4.4v17.7c0,1-0.8,1.8-1.8,1.8h-4.3c-1,0-1.8-0.8-1.8-1.8v-17.7v-8v-18.2
			c0-0.1,0-0.1,0-0.1c0-0.9,0.8-1.8,1.8-1.8h4.3c1,0,1.8,0.9,1.8,1.8v18.3h5.1c3.3,0,5.9-2.6,5.9-5.8v-12.5c0-0.9,0.8-1.8,1.8-1.8
			h4.2c0.9,0,1.9,0.9,1.9,1.8L175.5,337.7z M172.4,327c0-0.2-0.1-0.5-0.3-0.5h-0.9c-0.3,0-0.6,0.2-0.6,0.5v10.8c0,4.9-4,8.9-8.9,8.9
			h-8.2V327c0-0.2-0.2-0.5-0.5-0.5h-0.9c-0.2,0-0.5,0.2-0.5,0.5v19.7v2v19.1c0,0.2,0.2,0.5,0.5,0.5h0.9c0.2,0,0.5-0.2,0.5-0.5v-19.1
			h7.5c4.9,0,8.9,4,8.9,8.9v10.2c0,0.2,0.2,0.5,0.6,0.5h0.9c0.2,0,0.5-0.2,0.5-0.5v-10.2c0-4.5-2-8.8-6-10.3c4-1.4,6.6-5.1,6.6-9.5
			V327z M194.8,332.1v11.5h9.9c1,0,1.8,0.8,1.8,1.8v4.3c0,0.9-0.8,1.8-1.8,1.8h-9.9v11.4h9.9c1,0,1.8,0.9,1.8,1.8v4.3
			c0,1-0.8,1.8-1.8,1.8h-14.3c-2.1,0-3.7-1.6-3.7-3.7v-39.7c0-1.9,1.6-3.7,3.7-3.7h14.3c1,0,1.8,0.9,1.8,1.8v4.3
			c0,1-0.8,1.8-1.8,1.8H194.8z M191.9,346.6v-17.5H203c0.2,0,0.5-0.2,0.5-0.5v-1c0-0.2-0.2-0.5-0.5-0.5h-12.6
			c-0.3,0-0.6,0.2-0.6,0.6v39.7c0,0.3,0.2,0.7,0.6,0.7H203c0.2,0,0.5-0.2,0.5-0.5v-1c0-0.2-0.2-0.5-0.5-0.5h-11.2v-17.6H203
			c0.2,0,0.5-0.2,0.5-0.5v-1c0-0.2-0.2-0.5-0.5-0.5H191.9z M244.9,338.4c0,3.8-1.5,7.1-4,9.5c2.5,2.4,4,5.8,4,9.6v11.8
			c0,1-0.8,1.8-1.8,1.8h-4.3c-1,0-1.8-0.8-1.8-1.8v-11.8c0-3.3-2.6-5.9-5.8-5.9h-4.4v17.7c0,1-0.9,1.8-1.8,1.8h-4.3
			c-1,0-1.8-0.8-1.8-1.8v-41.5c0-1.9,1.6-3.7,3.7-3.7h9.5c7.3,0,13.1,5.9,13.1,13.2V338.4z M241.9,337.4c0-5.6-4.6-10.2-10.2-10.2
			h-9.5c-0.3,0-0.7,0.2-0.7,0.6v39.9c0,0.2,0.2,0.5,0.6,0.5h0.9c0.2,0,0.5-0.2,0.5-0.5v-19.1h7.5c4.9,0,8.9,4,8.9,8.9v10.2
			c0,0.2,0.2,0.5,0.5,0.5h0.9c0.3,0,0.6-0.2,0.6-0.5v-10.2c0-4.5-2.9-8.1-6.7-9.6c3.9-1.4,6.7-5.1,6.7-9.5V337.4z M240,337.4v1.1
			c0,4.9-3.3,8.2-8.2,8.2h-8.2v-17.5h8.2C236.7,329.2,240,332.5,240,337.4z M236.9,337.4c0-3.3-1.9-5.2-5.1-5.2h-5.1v11.4h5.1
			c3.2,0,5.1-1.9,5.1-5.1V337.4z"/>
	</g>
	<g>
		
			<linearGradient id="SVGID_2_" gradientUnits="userSpaceOnUse" x1="122.4489" y1="172.51" x2="122.4489" y2="398.51" gradientTransform="matrix(1 0 0 -1 0 398.51)">
			<stop  offset="0" style="stop-color:#EE5D4E"/>
			<stop  offset="0.33" style="stop-color:#F07420"/>
			<stop  offset="0.66" style="stop-color:#FAD943"/>
			<stop  offset="0.9335" style="stop-color:#27B697"/>
		</linearGradient>
		<path class="st2" d="M153.7,29c-8.1,0-16.1,1-23.8,3.1V0l-14.1,7.6c-0.4,0.2-0.7,0.6-0.7,1v23.5c-7.7-2-15.7-3.1-23.8-3.1
			c-48.5,0-88,37.5-88,83.7c0,30.3,12.4,58.7,34.9,80.2C60.6,214,90.8,226,122.4,226c31.8,0,61.8-11.8,84.3-33.2
			c22.5-21.4,34.9-49.9,34.9-80.2C241.7,66.5,202.2,29,153.7,29z M122.3,50.4l39.9,11.4l-1.7-1.2l-22.1-16.1c5-1,10.1-1.5,15.3-1.5
			c40.4,0,73.2,31.2,73.2,69.6c0,54.7-46.9,99.3-104.5,99.3S18,167.4,18,112.6C18,74.2,50.8,43,91.2,43c5.2,0,10.3,0.5,15.3,1.5
			L82.3,62.1L122.3,50.4z"/>
	</g>
</g>
</svg>
